<svg xmlns="http://www.w3.org/2000/svg" width="1180" height="760" viewBox="0 0 1180 760">
<rect width="100%" height="100%" fill="#ffffff"/>
<style>text{font-family:Arial,Helvetica,sans-serif;fill:#1f2933}.title{font-size:32px;font-weight:700}.label{font-size:19px}.tick{font-size:17px;fill:#52606d}.value{font-size:17px;font-weight:700}</style>
<text class="title" x="95" y="38">Raw vs boundary-filtered commutativity</text>
<text class="label" x="95" y="60">Sequence length 4, mean across 10 seeds. Filtered score ignores trajectories that hit invalid transitions.</text>
<line x1="95" y1="465.0" x2="1135" y2="465.0" stroke="#e4e7eb"/>
<text class="tick" x="55" y="469.0">0.00</text>
<line x1="95" y1="368.2" x2="1135" y2="368.2" stroke="#e4e7eb"/>
<text class="tick" x="55" y="372.2">0.25</text>
<line x1="95" y1="271.5" x2="1135" y2="271.5" stroke="#e4e7eb"/>
<text class="tick" x="55" y="275.5">0.50</text>
<line x1="95" y1="174.8" x2="1135" y2="174.8" stroke="#e4e7eb"/>
<text class="tick" x="55" y="178.8">0.75</text>
<line x1="95" y1="78.0" x2="1135" y2="78.0" stroke="#e4e7eb"/>
<text class="tick" x="55" y="82.0">1.00</text>
<line x1="95" y1="465" x2="1135" y2="465" stroke="#1f2933"/>
<line x1="95" y1="78" x2="95" y2="465" stroke="#1f2933"/>
<text class="label" x="25" y="300" transform="rotate(-90 25 300)">commutativity score</text>
<rect x="108.3" y="78.0" width="34" height="387.0" fill="#1f5fbf" opacity="0.45" rx="3"/>
<line x1="125.3" y1="78.0" x2="125.3" y2="78.0" stroke="#1f2933" stroke-width="1.5"/>
<text class="value" text-anchor="middle" x="125.3" y="70.0">1.00</text>
<rect x="142.3" y="78.0" width="34" height="387.0" fill="#1f5fbf" opacity="1.0" rx="3"/>
<line x1="159.3" y1="78.0" x2="159.3" y2="78.0" stroke="#1f2933" stroke-width="1.5"/>
<text class="value" text-anchor="middle" x="159.3" y="70.0">1.00</text>
<text class="tick" text-anchor="end" x="160.3" y="557.0" transform="rotate(-38 160.3 557.0)">torus lattice</text>
<rect x="202.8" y="158.1" width="34" height="306.9" fill="#5a8dee" opacity="0.45" rx="3"/>
<line x1="219.8" y1="154.1" x2="219.8" y2="162.2" stroke="#1f2933" stroke-width="1.5"/>
<text class="value" text-anchor="middle" x="219.8" y="150.1">0.79</text>
<rect x="236.8" y="78.0" width="34" height="387.0" fill="#5a8dee" opacity="1.0" rx="3"/>
<line x1="253.8" y1="78.0" x2="253.8" y2="78.0" stroke="#1f2933" stroke-width="1.5"/>
<text class="value" text-anchor="middle" x="253.8" y="70.0">1.00</text>
<text class="tick" text-anchor="end" x="254.8" y="557.0" transform="rotate(-38 254.8 557.0)">clamped lattice</text>
<rect x="297.4" y="226.9" width="34" height="238.1" fill="#2a9d8f" opacity="0.45" rx="3"/>
<line x1="314.4" y1="224.0" x2="314.4" y2="229.8" stroke="#1f2933" stroke-width="1.5"/>
<text class="value" text-anchor="middle" x="314.4" y="218.9">0.62</text>
<rect x="331.4" y="78.0" width="34" height="387.0" fill="#2a9d8f" opacity="1.0" rx="3"/>
<line x1="348.4" y1="78.0" x2="348.4" y2="78.0" stroke="#1f2933" stroke-width="1.5"/>
<text class="value" text-anchor="middle" x="348.4" y="70.0">1.00</text>
<text class="tick" text-anchor="end" x="349.4" y="557.0" transform="rotate(-38 349.4 557.0)">bottleneck rooms</text>
<rect x="391.9" y="304.0" width="34" height="161.0" fill="#d45d5d" opacity="0.45" rx="3"/>
<line x1="408.9" y1="297.2" x2="408.9" y2="310.9" stroke="#1f2933" stroke-width="1.5"/>
<text class="value" text-anchor="middle" x="408.9" y="296.0">0.42</text>
<rect x="425.9" y="417.9" width="34" height="47.1" fill="#d45d5d" opacity="1.0" rx="3"/>
<line x1="442.9" y1="413.4" x2="442.9" y2="422.3" stroke="#1f2933" stroke-width="1.5"/>
<text class="value" text-anchor="middle" x="442.9" y="409.9">0.12</text>
<text class="tick" text-anchor="end" x="443.9" y="557.0" transform="rotate(-38 443.9 557.0)">tree</text>
<rect x="486.5" y="221.0" width="34" height="244.0" fill="#f0c04a" opacity="0.45" rx="3"/>
<line x1="503.5" y1="214.3" x2="503.5" y2="227.7" stroke="#1f2933" stroke-width="1.5"/>
<text class="value" text-anchor="middle" x="503.5" y="213.0">0.63</text>
<rect x="520.5" y="413.4" width="34" height="51.6" fill="#f0c04a" opacity="1.0" rx="3"/>
<line x1="537.5" y1="403.1" x2="537.5" y2="423.6" stroke="#1f2933" stroke-width="1.5"/>
<text class="value" text-anchor="middle" x="537.5" y="405.4">0.13</text>
<text class="tick" text-anchor="end" x="538.5" y="557.0" transform="rotate(-38 538.5 557.0)">shortcut tree 025</text>
<rect x="581.0" y="237.1" width="34" height="227.9" fill="#e9a227" opacity="0.45" rx="3"/>
<line x1="598.0" y1="231.7" x2="598.0" y2="242.4" stroke="#1f2933" stroke-width="1.5"/>
<text class="value" text-anchor="middle" x="598.0" y="229.1">0.59</text>
<rect x="615.0" y="410.1" width="34" height="54.9" fill="#e9a227" opacity="1.0" rx="3"/>
<line x1="632.0" y1="401.9" x2="632.0" y2="418.3" stroke="#1f2933" stroke-width="1.5"/>
<text class="value" text-anchor="middle" x="632.0" y="402.1">0.14</text>
<text class="tick" text-anchor="end" x="633.0" y="557.0" transform="rotate(-38 633.0 557.0)">shortcut tree 050</text>
<rect x="675.5" y="267.2" width="34" height="197.8" fill="#c87812" opacity="0.45" rx="3"/>
<line x1="692.5" y1="261.9" x2="692.5" y2="272.5" stroke="#1f2933" stroke-width="1.5"/>
<text class="value" text-anchor="middle" x="692.5" y="259.2">0.51</text>
<rect x="709.5" y="411.8" width="34" height="53.2" fill="#c87812" opacity="1.0" rx="3"/>
<line x1="726.5" y1="407.3" x2="726.5" y2="416.3" stroke="#1f2933" stroke-width="1.5"/>
<text class="value" text-anchor="middle" x="726.5" y="403.8">0.14</text>
<text class="tick" text-anchor="end" x="727.5" y="557.0" transform="rotate(-38 727.5 557.0)">shortcut tree 100</text>
<rect x="770.1" y="159.3" width="34" height="305.7" fill="#7b2cbf" opacity="0.45" rx="3"/>
<line x1="787.1" y1="155.8" x2="787.1" y2="162.9" stroke="#1f2933" stroke-width="1.5"/>
<text class="value" text-anchor="middle" x="787.1" y="151.3">0.79</text>
<rect x="804.1" y="465.0" width="34" height="0.0" fill="#7b2cbf" opacity="1.0" rx="3"/>
<line x1="821.1" y1="465.0" x2="821.1" y2="465.0" stroke="#1f2933" stroke-width="1.5"/>
<text class="value" text-anchor="middle" x="821.1" y="457.0">0.00</text>
<text class="tick" text-anchor="end" x="822.1" y="557.0" transform="rotate(-38 822.1 557.0)">trace commute 000</text>
<rect x="864.6" y="166.5" width="34" height="298.5" fill="#9d4edd" opacity="0.45" rx="3"/>
<line x1="881.6" y1="160.5" x2="881.6" y2="172.4" stroke="#1f2933" stroke-width="1.5"/>
<text class="value" text-anchor="middle" x="881.6" y="158.5">0.77</text>
<rect x="898.6" y="363.0" width="34" height="102.0" fill="#9d4edd" opacity="1.0" rx="3"/>
<line x1="915.6" y1="355.3" x2="915.6" y2="370.7" stroke="#1f2933" stroke-width="1.5"/>
<text class="value" text-anchor="middle" x="915.6" y="355.0">0.26</text>
<text class="tick" text-anchor="end" x="916.6" y="557.0" transform="rotate(-38 916.6 557.0)">trace commute 033</text>
<rect x="959.2" y="188.0" width="34" height="277.0" fill="#c77dff" opacity="0.45" rx="3"/>
<line x1="976.2" y1="183.0" x2="976.2" y2="193.1" stroke="#1f2933" stroke-width="1.5"/>
<text class="value" text-anchor="middle" x="976.2" y="180.0">0.72</text>
<rect x="993.2" y="258.3" width="34" height="206.7" fill="#c77dff" opacity="1.0" rx="3"/>
<line x1="1010.2" y1="253.7" x2="1010.2" y2="262.8" stroke="#1f2933" stroke-width="1.5"/>
<text class="value" text-anchor="middle" x="1010.2" y="250.3">0.53</text>
<text class="tick" text-anchor="end" x="1011.2" y="557.0" transform="rotate(-38 1011.2 557.0)">trace commute 067</text>
<rect x="1053.7" y="185.6" width="34" height="279.4" fill="#4cc9f0" opacity="0.45" rx="3"/>
<line x1="1070.7" y1="179.9" x2="1070.7" y2="191.3" stroke="#1f2933" stroke-width="1.5"/>
<text class="value" text-anchor="middle" x="1070.7" y="177.6">0.72</text>
<rect x="1087.7" y="78.0" width="34" height="387.0" fill="#4cc9f0" opacity="1.0" rx="3"/>
<line x1="1104.7" y1="78.0" x2="1104.7" y2="78.0" stroke="#1f2933" stroke-width="1.5"/>
<text class="value" text-anchor="middle" x="1104.7" y="70.0">1.00</text>
<text class="tick" text-anchor="end" x="1105.7" y="557.0" transform="rotate(-38 1105.7 557.0)">trace commute 100</text>
<rect x="95" y="705" width="20" height="14" fill="#52606d" opacity="0.45" rx="2"/>
<text class="label" x="123" y="718">raw</text>
<rect x="175" y="705" width="20" height="14" fill="#52606d" opacity="1.0" rx="2"/>
<text class="label" x="203" y="718">valid-only</text>
</svg>