<svg xmlns="http://www.w3.org/2000/svg" width="1080" height="760" viewBox="0 0 1080 760">
<rect width="100%" height="100%" fill="#ffffff"/>
<style>text{font-family:Arial,Helvetica,sans-serif;fill:#1f2933}.title{font-size:32px;font-weight:700}.label{font-size:18px}.tick{font-size:16px;fill:#52606d}.value{font-size:16px;font-weight:700}</style>
<text class="title" x="70" y="38">Best recurrent memory advantage</text>
<text class="label" x="70" y="62">Best recurrent action accuracy minus best memoryless action accuracy; two dataset seeds, three reservoir seeds</text>
<line x1="210" y1="261.0" x2="1020" y2="261.0" stroke="#9aa5b1" stroke-width="1"/>
<rect x="212.9" y="245.2" width="12.2" height="15.8" fill="#15803d" rx="2"/>
<text class="value" text-anchor="middle" x="219.0" y="240.2">+0.05</text>
<text class="tick" text-anchor="end" x="241.0" y="580" transform="rotate(-36 241.0 580)">aliased loop rooms / gaussian sensory</text>
<rect x="230.9" y="261.0" width="12.2" height="31.7" fill="#b91c1c" rx="2"/>
<text class="value" text-anchor="middle" x="237.0" y="305.7">-0.10</text>
<text class="tick" text-anchor="end" x="259.0" y="580" transform="rotate(-36 259.0 580)">aliased loop rooms / gaussian sensory</text>
<rect x="248.9" y="261.0" width="12.2" height="1.0" fill="#15803d" rx="2"/>
<text class="value" text-anchor="middle" x="255.0" y="256.0">+0.00</text>
<text class="tick" text-anchor="end" x="277.0" y="580" transform="rotate(-36 277.0 580)">aliased loop rooms / gaussian sensory</text>
<rect x="266.9" y="218.8" width="12.2" height="42.2" fill="#15803d" rx="2"/>
<text class="value" text-anchor="middle" x="273.0" y="213.8">+0.13</text>
<text class="tick" text-anchor="end" x="295.0" y="580" transform="rotate(-36 295.0 580)">aliased rooms / gaussian sensory</text>
<rect x="284.9" y="229.4" width="12.2" height="31.7" fill="#15803d" rx="2"/>
<text class="value" text-anchor="middle" x="291.0" y="224.4">+0.10</text>
<text class="tick" text-anchor="end" x="313.0" y="580" transform="rotate(-36 313.0 580)">aliased rooms / gaussian sensory</text>
<rect x="302.9" y="208.2" width="12.2" height="52.8" fill="#15803d" rx="2"/>
<text class="value" text-anchor="middle" x="309.0" y="203.2">+0.17</text>
<text class="tick" text-anchor="end" x="331.0" y="580" transform="rotate(-36 331.0 580)">aliased rooms / gaussian sensory</text>
<rect x="320.9" y="129.0" width="12.2" height="132.0" fill="#15803d" rx="2"/>
<text class="value" text-anchor="middle" x="327.0" y="124.0">+0.42</text>
<text class="tick" text-anchor="end" x="349.0" y="580" transform="rotate(-36 349.0 580)">aliased t maze / gaussian sensory</text>
<rect x="338.9" y="129.0" width="12.2" height="132.0" fill="#15803d" rx="2"/>
<text class="value" text-anchor="middle" x="345.0" y="124.0">+0.42</text>
<text class="tick" text-anchor="end" x="367.0" y="580" transform="rotate(-36 367.0 580)">aliased t maze / gaussian sensory</text>
<rect x="356.9" y="129.0" width="12.2" height="132.0" fill="#15803d" rx="2"/>
<text class="value" text-anchor="middle" x="363.0" y="124.0">+0.42</text>
<text class="tick" text-anchor="end" x="385.0" y="580" transform="rotate(-36 385.0 580)">aliased t maze / gaussian sensory</text>
<rect x="374.9" y="261.0" width="12.2" height="10.6" fill="#b91c1c" rx="2"/>
<text class="value" text-anchor="middle" x="381.0" y="284.6">-0.03</text>
<text class="tick" text-anchor="end" x="403.0" y="580" transform="rotate(-36 403.0 580)">bottleneck rooms / gaussian sensory</text>
<rect x="392.9" y="261.0" width="12.2" height="1.0" fill="#15803d" rx="2"/>
<text class="value" text-anchor="middle" x="399.0" y="256.0">+0.00</text>
<text class="tick" text-anchor="end" x="421.0" y="580" transform="rotate(-36 421.0 580)">bottleneck rooms / gaussian sensory</text>
<rect x="410.9" y="243.4" width="12.2" height="17.6" fill="#15803d" rx="2"/>
<text class="value" text-anchor="middle" x="417.0" y="238.4">+0.06</text>
<text class="tick" text-anchor="end" x="439.0" y="580" transform="rotate(-36 439.0 580)">bottleneck rooms / gaussian sensory</text>
<rect x="428.9" y="253.8" width="12.2" height="7.2" fill="#15803d" rx="2"/>
<text class="value" text-anchor="middle" x="435.0" y="248.8">+0.02</text>
<text class="tick" text-anchor="end" x="457.0" y="580" transform="rotate(-36 457.0 580)">clamped lattice / gaussian sensory</text>
<rect x="446.9" y="261.0" width="12.2" height="1.0" fill="#15803d" rx="2"/>
<text class="value" text-anchor="middle" x="453.0" y="256.0">+0.00</text>
<text class="tick" text-anchor="end" x="475.0" y="580" transform="rotate(-36 475.0 580)">clamped lattice / gaussian sensory</text>
<rect x="464.9" y="251.4" width="12.2" height="9.6" fill="#15803d" rx="2"/>
<text class="value" text-anchor="middle" x="471.0" y="246.4">+0.03</text>
<text class="tick" text-anchor="end" x="493.0" y="580" transform="rotate(-36 493.0 580)">clamped lattice / gaussian sensory</text>
<rect x="482.9" y="155.4" width="12.2" height="105.6" fill="#15803d" rx="2"/>
<text class="value" text-anchor="middle" x="489.0" y="150.4">+0.33</text>
<text class="tick" text-anchor="end" x="511.0" y="580" transform="rotate(-36 511.0 580)">landmark gap detour / gaussian sensory</text>
<rect x="500.9" y="102.6" width="12.2" height="158.4" fill="#15803d" rx="2"/>
<text class="value" text-anchor="middle" x="507.0" y="97.6">+0.50</text>
<text class="tick" text-anchor="end" x="529.0" y="580" transform="rotate(-36 529.0 580)">landmark gap detour / gaussian sensory</text>
<rect x="518.9" y="181.8" width="12.2" height="79.2" fill="#15803d" rx="2"/>
<text class="value" text-anchor="middle" x="525.0" y="176.8">+0.25</text>
<text class="tick" text-anchor="end" x="547.0" y="580" transform="rotate(-36 547.0 580)">landmark gap detour / gaussian sensory</text>
<rect x="536.9" y="228.0" width="12.2" height="33.0" fill="#15803d" rx="2"/>
<text class="value" text-anchor="middle" x="543.0" y="223.0">+0.10</text>
<text class="tick" text-anchor="end" x="565.0" y="580" transform="rotate(-36 565.0 580)">room graph bottleneck / gaussian sensory</text>
<rect x="554.9" y="230.2" width="12.2" height="30.8" fill="#15803d" rx="2"/>
<text class="value" text-anchor="middle" x="561.0" y="225.2">+0.10</text>
<text class="tick" text-anchor="end" x="583.0" y="580" transform="rotate(-36 583.0 580)">room graph bottleneck / gaussian sensory</text>
<rect x="572.9" y="240.1" width="12.2" height="20.9" fill="#15803d" rx="2"/>
<text class="value" text-anchor="middle" x="579.0" y="235.1">+0.07</text>
<text class="tick" text-anchor="end" x="601.0" y="580" transform="rotate(-36 601.0 580)">room graph bottleneck / gaussian sensory</text>
<rect x="590.9" y="261.0" width="12.2" height="8.5" fill="#b91c1c" rx="2"/>
<text class="value" text-anchor="middle" x="597.0" y="282.6">-0.03</text>
<text class="tick" text-anchor="end" x="619.0" y="580" transform="rotate(-36 619.0 580)">room graph loop rich / gaussian sensory</text>
<rect x="608.9" y="252.5" width="12.2" height="8.5" fill="#15803d" rx="2"/>
<text class="value" text-anchor="middle" x="615.0" y="247.5">+0.03</text>
<text class="tick" text-anchor="end" x="637.0" y="580" transform="rotate(-36 637.0 580)">room graph loop rich / gaussian sensory</text>
<rect x="626.9" y="261.0" width="12.2" height="8.5" fill="#b91c1c" rx="2"/>
<text class="value" text-anchor="middle" x="633.0" y="282.6">-0.03</text>
<text class="tick" text-anchor="end" x="655.0" y="580" transform="rotate(-36 655.0 580)">room graph loop rich / gaussian sensory</text>
<rect x="644.9" y="258.2" width="12.2" height="2.8" fill="#15803d" rx="2"/>
<text class="value" text-anchor="middle" x="651.0" y="253.2">+0.01</text>
<text class="tick" text-anchor="end" x="673.0" y="580" transform="rotate(-36 673.0 580)">room graph tree like / gaussian sensory</text>
<rect x="662.9" y="258.2" width="12.2" height="2.8" fill="#15803d" rx="2"/>
<text class="value" text-anchor="middle" x="669.0" y="253.2">+0.01</text>
<text class="tick" text-anchor="end" x="691.0" y="580" transform="rotate(-36 691.0 580)">room graph tree like / gaussian sensory</text>
<rect x="680.9" y="256.3" width="12.2" height="4.7" fill="#15803d" rx="2"/>
<text class="value" text-anchor="middle" x="687.0" y="251.3">+0.01</text>
<text class="tick" text-anchor="end" x="709.0" y="580" transform="rotate(-36 709.0 580)">room graph tree like / gaussian sensory</text>
<rect x="698.9" y="166.0" width="12.2" height="95.0" fill="#15803d" rx="2"/>
<text class="value" text-anchor="middle" x="705.0" y="161.0">+0.30</text>
<text class="tick" text-anchor="end" x="727.0" y="580" transform="rotate(-36 727.0 580)">shortcut route choice / gaussian sensory</text>
<rect x="716.9" y="134.3" width="12.2" height="126.7" fill="#15803d" rx="2"/>
<text class="value" text-anchor="middle" x="723.0" y="129.3">+0.40</text>
<text class="tick" text-anchor="end" x="745.0" y="580" transform="rotate(-36 745.0 580)">shortcut route choice / gaussian sensory</text>
<rect x="734.9" y="166.0" width="12.2" height="95.0" fill="#15803d" rx="2"/>
<text class="value" text-anchor="middle" x="741.0" y="161.0">+0.30</text>
<text class="tick" text-anchor="end" x="763.0" y="580" transform="rotate(-36 763.0 580)">shortcut route choice / gaussian sensory</text>
<rect x="752.9" y="261.0" width="12.2" height="1.0" fill="#15803d" rx="2"/>
<text class="value" text-anchor="middle" x="759.0" y="256.0">+0.00</text>
<text class="tick" text-anchor="end" x="781.0" y="580" transform="rotate(-36 781.0 580)">shortcut tree 025 / gaussian sensory</text>
<rect x="770.9" y="260.5" width="12.2" height="1.0" fill="#15803d" rx="2"/>
<text class="value" text-anchor="middle" x="777.0" y="255.5">+0.00</text>
<text class="tick" text-anchor="end" x="799.0" y="580" transform="rotate(-36 799.0 580)">shortcut tree 025 / gaussian sensory</text>
<rect x="788.9" y="259.3" width="12.2" height="1.8" fill="#15803d" rx="2"/>
<text class="value" text-anchor="middle" x="795.0" y="254.3">+0.01</text>
<text class="tick" text-anchor="end" x="817.0" y="580" transform="rotate(-36 817.0 580)">shortcut tree 025 / gaussian sensory</text>
<rect x="806.9" y="259.9" width="12.2" height="1.2" fill="#15803d" rx="2"/>
<text class="value" text-anchor="middle" x="813.0" y="254.9">+0.00</text>
<text class="tick" text-anchor="end" x="835.0" y="580" transform="rotate(-36 835.0 580)">shortcut tree 050 / gaussian sensory</text>
<rect x="824.9" y="259.3" width="12.2" height="1.8" fill="#15803d" rx="2"/>
<text class="value" text-anchor="middle" x="831.0" y="254.3">+0.01</text>
<text class="tick" text-anchor="end" x="853.0" y="580" transform="rotate(-36 853.0 580)">shortcut tree 050 / gaussian sensory</text>
<rect x="842.9" y="259.3" width="12.2" height="1.8" fill="#15803d" rx="2"/>
<text class="value" text-anchor="middle" x="849.0" y="254.3">+0.01</text>
<text class="tick" text-anchor="end" x="871.0" y="580" transform="rotate(-36 871.0 580)">shortcut tree 050 / gaussian sensory</text>
<rect x="860.9" y="255.8" width="12.2" height="5.3" fill="#15803d" rx="2"/>
<text class="value" text-anchor="middle" x="867.0" y="250.8">+0.02</text>
<text class="tick" text-anchor="end" x="889.0" y="580" transform="rotate(-36 889.0 580)">shortcut tree 100 / gaussian sensory</text>
<rect x="878.9" y="261.0" width="12.2" height="1.0" fill="#15803d" rx="2"/>
<text class="value" text-anchor="middle" x="885.0" y="256.0">+0.00</text>
<text class="tick" text-anchor="end" x="907.0" y="580" transform="rotate(-36 907.0 580)">shortcut tree 100 / gaussian sensory</text>
<rect x="896.9" y="257.5" width="12.2" height="3.5" fill="#15803d" rx="2"/>
<text class="value" text-anchor="middle" x="903.0" y="252.5">+0.01</text>
<text class="tick" text-anchor="end" x="925.0" y="580" transform="rotate(-36 925.0 580)">shortcut tree 100 / gaussian sensory</text>
<rect x="914.9" y="217.8" width="12.2" height="43.2" fill="#15803d" rx="2"/>
<text class="value" text-anchor="middle" x="921.0" y="212.8">+0.14</text>
<text class="tick" text-anchor="end" x="943.0" y="580" transform="rotate(-36 943.0 580)">torus lattice / gaussian sensory</text>
<rect x="932.9" y="246.6" width="12.2" height="14.4" fill="#15803d" rx="2"/>
<text class="value" text-anchor="middle" x="939.0" y="241.6">+0.05</text>
<text class="tick" text-anchor="end" x="961.0" y="580" transform="rotate(-36 961.0 580)">torus lattice / gaussian sensory</text>
<rect x="950.9" y="237.0" width="12.2" height="24.0" fill="#15803d" rx="2"/>
<text class="value" text-anchor="middle" x="957.0" y="232.0">+0.08</text>
<text class="tick" text-anchor="end" x="979.0" y="580" transform="rotate(-36 979.0 580)">torus lattice / gaussian sensory</text>
<rect x="968.9" y="261.0" width="12.2" height="1.0" fill="#15803d" rx="2"/>
<text class="value" text-anchor="middle" x="975.0" y="256.0">+0.00</text>
<text class="tick" text-anchor="end" x="997.0" y="580" transform="rotate(-36 997.0 580)">tree / gaussian sensory</text>
<rect x="986.9" y="261.0" width="12.2" height="1.0" fill="#15803d" rx="2"/>
<text class="value" text-anchor="middle" x="993.0" y="256.0">+0.00</text>
<text class="tick" text-anchor="end" x="1015.0" y="580" transform="rotate(-36 1015.0 580)">tree / gaussian sensory</text>
<rect x="1004.9" y="261.0" width="12.2" height="1.0" fill="#15803d" rx="2"/>
<text class="value" text-anchor="middle" x="1011.0" y="256.0">+0.00</text>
<text class="tick" text-anchor="end" x="1033.0" y="580" transform="rotate(-36 1033.0 580)">tree / gaussian sensory</text>
<text class="label" text-anchor="end" x="198" y="265.0">0</text>
</svg>